<svg width="18" height="18" viewBox="0 0 18 18" fill="none" xmlns="http://www.w3.org/2000/svg">
<path d="M6.81818 16.2727C7.21985 16.2727 7.54546 15.947 7.54546 15.5454C7.54546 15.1437 7.21985 14.8181 6.81818 14.8181C6.41652 14.8181 6.09091 15.1437 6.09091 15.5454C6.09091 15.947 6.41652 16.2727 6.81818 16.2727Z" stroke="#030D15" stroke-width="1.5" stroke-linecap="round" stroke-linejoin="round"/>
<path d="M14.8182 16.2727C15.2198 16.2727 15.5455 15.947 15.5455 15.5454C15.5455 15.1437 15.2198 14.8181 14.8182 14.8181C14.4165 14.8181 14.0909 15.1437 14.0909 15.5454C14.0909 15.947 14.4165 16.2727 14.8182 16.2727Z" stroke="#030D15" stroke-width="1.5" stroke-linecap="round" stroke-linejoin="round"/>
<path d="M1 1H3.90909L5.85818 10.7382C5.92469 11.073 6.10684 11.3738 6.37276 11.5879C6.63868 11.8019 6.97142 11.9156 7.31273 11.9091H14.3818C14.7231 11.9156 15.0559 11.8019 15.3218 11.5879C15.5877 11.3738 15.7699 11.073 15.8364 10.7382L17 4.63636H4.63636" stroke="#030D15" stroke-width="1.5" stroke-linecap="round" stroke-linejoin="round"/>
</svg>
