<svg width="44" height="44" viewBox="0 0 44 44" fill="none" xmlns="http://www.w3.org/2000/svg">
<circle cx="22" cy="22" r="22" fill="#F3F3F3"/>
<circle cx="22" cy="22" r="19" fill="white"/>
<path d="M19.3182 30.2728C19.7198 30.2728 20.0455 29.9472 20.0455 29.5455C20.0455 29.1438 19.7198 28.8182 19.3182 28.8182C18.9165 28.8182 18.5909 29.1438 18.5909 29.5455C18.5909 29.9472 18.9165 30.2728 19.3182 30.2728Z" stroke="black" stroke-width="1.5" stroke-linecap="round" stroke-linejoin="round"/>
<path d="M27.3182 30.2728C27.7198 30.2728 28.0455 29.9472 28.0455 29.5455C28.0455 29.1438 27.7198 28.8182 27.3182 28.8182C26.9165 28.8182 26.5909 29.1438 26.5909 29.5455C26.5909 29.9472 26.9165 30.2728 27.3182 30.2728Z" stroke="black" stroke-width="1.5" stroke-linecap="round" stroke-linejoin="round"/>
<path d="M13.5 15H16.4091L18.3582 24.7382C18.4247 25.073 18.6068 25.3738 18.8728 25.5879C19.1387 25.8019 19.4714 25.9156 19.8127 25.9091H26.8818C27.2231 25.9156 27.5559 25.8019 27.8218 25.5879C28.0877 25.3738 28.2699 25.073 28.3364 24.7382L29.5 18.6364H17.1364" stroke="black" stroke-width="1.5" stroke-linecap="round" stroke-linejoin="round"/>
</svg>
