<svg width="23" height="27" viewBox="0 0 23 27" fill="none" xmlns="http://www.w3.org/2000/svg">
<path d="M4.59431 7.44369C4.67785 6.7615 4.95629 6.13499 5.367 5.62683L4.32979 4.54785L1.13463 6.39255C0.765685 6.60835 0.431552 7.00514 0.222717 7.44369H4.59431Z" fill="#262262"/>
<path d="M11.4511 19.4517L8.87546 11.4812C8.65967 11.5229 8.43691 11.5438 8.2072 11.5438C7.76865 11.5438 7.35097 11.4672 6.96115 11.321L4.44818 16.1799C4.8032 16.5071 5.03292 16.9805 5.03292 17.5025C5.03292 17.5722 5.02595 17.6418 5.01899 17.7114L10.8315 20.0364C10.9916 19.8067 11.2074 19.6048 11.4511 19.4517Z" fill="#1C75BC"/>
<path d="M3.24395 15.7203C3.37621 15.7203 3.50151 15.7343 3.62681 15.7621L6.13978 10.9032C5.31141 10.3324 4.73363 9.42052 4.60137 8.36938H0.00701904V8.37634V11.7943L2.6801 15.8108C2.85413 15.7552 3.04208 15.7203 3.24395 15.7203Z" fill="#2B3990"/>
<path d="M12.5092 19.1593C12.6623 19.1593 12.8155 19.1802 12.9616 19.2081L16.0594 12.769C15.3911 12.2887 14.9595 11.509 14.9595 10.618C14.9595 10.5275 14.9665 10.4301 14.9734 10.3396L11.5485 9.35107C11.1935 10.1655 10.5601 10.8199 9.75952 11.1958L12.3351 19.1663C12.3908 19.1663 12.4535 19.1593 12.5092 19.1593Z" fill="#1C75BC"/>
<path d="M19.1222 12.7898C18.976 12.8942 18.8159 12.9847 18.6418 13.0543L19.331 16.0337C20.0828 16.1033 20.6745 16.7368 20.6745 17.5025C20.6745 17.7392 20.6188 17.9689 20.5144 18.1708L22.5122 20.1686C22.7489 19.7857 22.9021 19.3472 22.9021 18.9574V16.5767L19.1222 12.7898Z" fill="#2EA8E0"/>
<path d="M10.4556 21.2127C10.4556 21.1083 10.4626 21.0039 10.4765 20.8995L4.67094 18.5745C4.53171 18.7555 4.36465 18.9156 4.16974 19.0339L5.45059 23.4264L8.10974 24.9578L10.7689 22.2987C10.574 21.9854 10.4556 21.6095 10.4556 21.2127Z" fill="#2EA8E0"/>
<path d="M18.4262 16.2426L17.737 13.2632C17.6952 13.2632 17.6465 13.2632 17.6047 13.2632C17.3611 13.2632 17.1175 13.2284 16.8947 13.1658L13.797 19.6048C13.8805 19.6744 13.9641 19.751 14.0337 19.8276L17.744 17.774C17.73 17.6836 17.7161 17.5931 17.7161 17.4956C17.7161 16.9735 18.0015 16.5002 18.4262 16.2426Z" fill="#2EA8E0"/>
<path d="M22.1641 6.71973L19.7764 9.1074C20.0758 9.53899 20.2567 10.0611 20.2567 10.6249C20.2567 11.1888 20.0827 11.7109 19.7764 12.1425L22.902 15.268V8.38344C22.902 7.81959 22.5957 7.15828 22.1641 6.71973Z" fill="#1C75BC"/>
<path d="M13.5951 22.9531C13.2819 23.148 12.906 23.2664 12.5092 23.2664C12.1124 23.2664 11.7365 23.155 11.4232 22.9531L8.93811 25.4383L10.3025 26.2249C10.936 26.5868 11.9662 26.5868 12.5927 26.2249L15.3006 24.6586L13.5951 22.9531Z" fill="#5DCBEC"/>
<path d="M3.2787 19.2916C3.26477 19.2916 3.25085 19.2916 3.24389 19.2916C2.25541 19.2916 1.45488 18.491 1.45488 17.5025C1.45488 17.0501 1.62195 16.6394 1.90039 16.3192L0 13.4651V18.9505C0 19.6814 0.515124 20.5724 1.14859 20.9344L4.29502 22.7512L3.2787 19.2916Z" fill="#1C75BC"/>
<path d="M19.8604 18.8252C19.6585 18.9226 19.4357 18.9853 19.1921 18.9853C18.8023 18.9853 18.4542 18.8391 18.1897 18.5955L14.4794 20.649C14.5281 20.83 14.556 21.0179 14.556 21.2129C14.556 21.6096 14.4446 21.9855 14.2427 22.2988L16.1292 24.1853L21.7468 20.9414C21.7886 20.9135 21.8373 20.8857 21.8791 20.8578L19.8604 18.8252Z" fill="#5DCBEC"/>
<path d="M11.8476 7.90997C11.8476 8.09792 11.8337 8.28587 11.8058 8.46686L15.2307 9.45534C15.5648 8.78011 16.1705 8.27195 16.9153 8.07008L16.4907 3.35738L12.8778 1.26904L10.5041 5.08375C11.3255 5.75202 11.8476 6.76834 11.8476 7.90997Z" fill="#2B3990"/>
<path d="M6.0422 4.98634C6.64782 4.53387 7.39962 4.26934 8.21407 4.26934C8.75008 4.26934 9.2652 4.38768 9.72464 4.59652L12.0218 0.893191C11.444 0.76789 10.7688 0.837504 10.3094 1.10899L5.17206 4.07443L6.0422 4.98634Z" fill="#262262"/>
<path d="M21.3917 6.18376L17.4725 3.92139L17.8345 7.98669C18.3079 8.02846 18.7534 8.19553 19.1223 8.45309L21.3917 6.18376Z" fill="#2B3990"/>
<path d="M5.01899 17.7183L10.8315 20.0434C10.9986 19.8067 11.2074 19.6048 11.458 19.4586L9.1748 12.3931C7.46932 13.4929 5.93091 14.8155 4.58044 16.3261C4.85889 16.6394 5.03292 17.057 5.03292 17.5165C5.03292 17.5791 5.02595 17.6487 5.01899 17.7183Z" fill="url(#paint0_linear)"/>
<path d="M12.5094 19.1594C12.6626 19.1594 12.8157 19.1803 12.9619 19.2081L16.0596 12.7691C15.3913 12.2887 14.9598 11.5091 14.9598 10.6181C14.9598 10.5276 14.9667 10.4301 14.9737 10.3396L13.9434 10.0403C12.5582 10.5276 11.2286 11.1471 9.98254 11.878L12.3354 19.1594C12.3911 19.1663 12.4537 19.1594 12.5094 19.1594Z" fill="url(#paint1_linear)"/>
<path d="M18.6418 13.0613L19.331 16.0406C20.0828 16.1103 20.6745 16.7437 20.6745 17.5094C20.6745 17.7461 20.6188 17.9758 20.5144 18.1777L22.5122 20.1756C22.7489 19.7927 22.9021 19.3541 22.9021 18.9643V16.5836L19.1222 12.8037C18.976 12.8942 18.8159 12.9847 18.6418 13.0613Z" fill="url(#paint2_linear)"/>
<path d="M10.4556 21.213C10.4556 21.1086 10.4626 21.0041 10.4765 20.8997L4.67094 18.5747C4.53171 18.7557 4.36465 18.9158 4.16974 19.0341L5.45059 23.4266L8.10974 24.9581L10.7689 22.2989C10.574 21.9857 10.4556 21.6098 10.4556 21.213Z" fill="url(#paint3_linear)"/>
<path d="M14.0337 19.8415L17.744 17.788C17.73 17.6975 17.7161 17.607 17.7161 17.5095C17.7161 16.9735 18.0015 16.5071 18.4262 16.2426L17.737 13.2632C17.6952 13.2632 17.6465 13.2632 17.6047 13.2632C17.3611 13.2632 17.1175 13.2284 16.8947 13.1658L13.797 19.6048C13.8805 19.6814 13.9571 19.758 14.0337 19.8415Z" fill="url(#paint4_linear)"/>
<path d="M20.2567 10.625C20.2567 11.1888 20.0827 11.7109 19.7764 12.1425L22.902 15.268V8.84292C22.4008 8.80811 21.8996 8.79419 21.3914 8.79419C20.9459 8.79419 20.5004 8.80811 20.0618 8.83596L19.7834 9.1144C20.0758 9.53903 20.2567 10.0611 20.2567 10.625Z" fill="url(#paint5_linear)"/>
<path d="M12.5092 23.2665C12.1124 23.2665 11.7365 23.1551 11.4232 22.9533L8.93811 25.4384L10.3025 26.225C10.936 26.587 11.9662 26.587 12.5927 26.225L15.3006 24.6587L13.5881 22.9463C13.2819 23.1551 12.906 23.2665 12.5092 23.2665Z" fill="url(#paint6_linear)"/>
<path d="M3.27871 19.2917C3.26479 19.2917 3.25086 19.2917 3.2439 19.2917C2.9585 19.2917 2.68701 19.2221 2.45033 19.1038C2.04659 19.7303 1.67069 20.3776 1.32959 21.039L4.28807 22.7514L3.27871 19.2917Z" fill="url(#paint7_linear)"/>
<path d="M19.1988 18.9853C18.809 18.9853 18.4609 18.8391 18.1964 18.5955L14.4861 20.649C14.5349 20.83 14.5627 21.0179 14.5627 21.2129C14.5627 21.6096 14.4513 21.9855 14.2495 22.2988L16.1359 24.1853L21.7536 20.9414C21.7953 20.9135 21.8441 20.8857 21.8858 20.8578L19.8601 18.8321C19.6583 18.9296 19.4355 18.9853 19.1988 18.9853Z" fill="url(#paint8_linear)"/>
<defs>
<linearGradient id="paint0_linear" x1="6.56795" y1="14.0894" x2="9.46104" y2="19.3933" gradientUnits="userSpaceOnUse">
<stop stop-color="white" stop-opacity="0.4"/>
<stop offset="1" stop-color="white" stop-opacity="0"/>
</linearGradient>
<linearGradient id="paint1_linear" x1="11.7497" y1="11.2631" x2="14.6429" y2="16.5672" gradientUnits="userSpaceOnUse">
<stop stop-color="white" stop-opacity="0.4"/>
<stop offset="1" stop-color="white" stop-opacity="0"/>
</linearGradient>
<linearGradient id="paint2_linear" x1="16.8503" y1="8.48075" x2="19.7434" y2="13.7848" gradientUnits="userSpaceOnUse">
<stop stop-color="white" stop-opacity="0.4"/>
<stop offset="1" stop-color="white" stop-opacity="0"/>
</linearGradient>
<linearGradient id="paint3_linear" x1="4.25096" y1="15.3533" x2="7.14408" y2="20.6574" gradientUnits="userSpaceOnUse">
<stop stop-color="white" stop-opacity="0.4"/>
<stop offset="1" stop-color="white" stop-opacity="0"/>
</linearGradient>
<linearGradient id="paint4_linear" x1="12.6704" y1="10.7607" x2="15.5636" y2="16.0648" gradientUnits="userSpaceOnUse">
<stop stop-color="white" stop-opacity="0.4"/>
<stop offset="1" stop-color="white" stop-opacity="0"/>
</linearGradient>
<linearGradient id="paint5_linear" x1="19.4674" y1="7.05331" x2="22.3605" y2="12.3573" gradientUnits="userSpaceOnUse">
<stop stop-color="white" stop-opacity="0.4"/>
<stop offset="1" stop-color="white" stop-opacity="0"/>
</linearGradient>
<linearGradient id="paint6_linear" x1="6.24009" y1="14.2682" x2="9.13324" y2="19.5723" gradientUnits="userSpaceOnUse">
<stop stop-color="white" stop-opacity="0.4"/>
<stop offset="1" stop-color="white" stop-opacity="0"/>
</linearGradient>
<linearGradient id="paint7_linear" x1="0.725774" y1="17.2763" x2="3.61883" y2="22.5802" gradientUnits="userSpaceOnUse">
<stop stop-color="white" stop-opacity="0.4"/>
<stop offset="1" stop-color="white" stop-opacity="0"/>
</linearGradient>
<linearGradient id="paint8_linear" x1="12.2851" y1="10.971" x2="15.1782" y2="16.275" gradientUnits="userSpaceOnUse">
<stop stop-color="white" stop-opacity="0.4"/>
<stop offset="1" stop-color="white" stop-opacity="0"/>
</linearGradient>
</defs>
</svg>
