<svg width="75" height="9" viewBox="0 0 75 9" fill="none" xmlns="http://www.w3.org/2000/svg">
<path d="M5.70322 7.07621V8.72645H0V0.184814H1.92747V7.07621H5.70322Z" fill="#247CC0"/>
<path d="M6.94421 0.184814H8.8717V8.72645H6.94421V0.184814Z" fill="#247CC0"/>
<path d="M16.5684 8.72645C16.0139 7.74951 15.4198 6.78577 14.7861 5.82203C14.1392 4.87149 13.4659 3.97376 12.7398 3.11564V8.71324H10.8387V0.184814H12.4098C12.687 0.462054 12.9775 0.792099 13.3075 1.18816C13.6375 1.58421 13.9676 2.00668 14.3109 2.45554C14.6541 2.90441 14.9973 3.36647 15.3274 3.85494C15.6706 4.33021 15.9875 4.79228 16.2779 5.24114V0.184814H18.1922V8.72645H16.5684Z" fill="#247CC0"/>
<path d="M25.2024 8.72645C25.0308 8.44921 24.8196 8.14556 24.5952 7.82872C24.3575 7.51187 24.1067 7.18182 23.8294 6.85177C23.5522 6.52173 23.275 6.20488 22.9713 5.91444C22.6809 5.6108 22.3772 5.34676 22.0868 5.12233V8.73965H20.1593V0.184814H22.0868V3.39287C22.5753 2.878 23.0901 2.32352 23.5918 1.76904C24.1067 1.20136 24.5687 0.673285 25.0044 0.184814H27.2883C26.7074 0.871313 26.1266 1.54461 25.5325 2.1783C24.9384 2.81199 24.3179 3.45889 23.671 4.10578C24.3575 4.67346 25.0176 5.34675 25.6513 6.13887C26.285 6.91778 26.8923 7.78911 27.4864 8.72645H25.2024Z" fill="#247CC0"/>
<path d="M28.5953 8.72645V0.184814H34.3646V1.79545H30.5228V3.47209H33.9421V5.05632H30.5228V7.11581H34.655V8.72645H28.5953Z" fill="#247CC0"/>
<path d="M43.5531 4.44916C43.5531 5.18846 43.4343 5.83536 43.2099 6.38984C42.9854 6.94432 42.6554 7.39319 42.2329 7.76284C41.8105 8.11929 41.2956 8.39652 40.6883 8.58135C40.081 8.76618 39.3945 8.85859 38.642 8.85859C38.2987 8.85859 37.8895 8.8454 37.4274 8.81899C36.9654 8.79259 36.5165 8.72657 36.0676 8.63416V0.303765C36.5165 0.224553 36.9786 0.171739 37.4538 0.132133C37.9291 0.10573 38.3516 0.0925293 38.6948 0.0925293C39.4209 0.0925293 40.0942 0.171744 40.6883 0.343369C41.2824 0.501791 41.7973 0.765825 42.2197 1.12228C42.6422 1.47873 42.9722 1.9276 43.2099 2.48208C43.4343 3.01015 43.5531 3.67024 43.5531 4.44916ZM37.9951 7.15555C38.0875 7.16875 38.1931 7.16875 38.312 7.16875C38.4308 7.16875 38.576 7.16875 38.7344 7.16875C39.6982 7.16875 40.4111 6.93112 40.8731 6.44265C41.3352 5.95418 41.5728 5.29408 41.5728 4.43596C41.5728 3.53823 41.3484 2.86493 40.9127 2.40286C40.4639 1.9408 39.7642 1.71636 38.8004 1.71636C38.6684 1.71636 38.5364 1.71636 38.3912 1.71636C38.246 1.71636 38.1139 1.72957 37.9951 1.74277V7.15555Z" fill="#247CC0"/>
<path d="M51.2102 0.184814V1.82185H48.6358V8.72645H46.7083V1.82185H44.1339V0.184814H51.2102Z" fill="#247CC0"/>
<path d="M52.4511 8.72645V0.184814H58.2204V1.79545H54.3786V3.47209H57.7979V5.05632H54.3786V7.11581H58.5108V8.72645H52.4511Z" fill="#247CC0"/>
<path d="M63.818 8.89808C62.4318 8.89808 61.3757 8.51523 60.6364 7.73632C59.9102 6.95741 59.5406 5.86165 59.5406 4.44904C59.5406 3.73614 59.6462 3.11565 59.8706 2.56117C60.0951 2.00669 60.3987 1.53143 60.7816 1.16177C61.1644 0.778919 61.6265 0.488472 62.1678 0.290443C62.6958 0.0924149 63.2767 0 63.9104 0C64.2669 0 64.5969 0.0264086 64.9006 0.0792162C65.191 0.132024 65.455 0.198029 65.6795 0.264038C65.9039 0.330048 66.0887 0.409264 66.2339 0.475273C66.3792 0.554485 66.4848 0.607291 66.5508 0.646896L65.9963 2.20472C65.7323 2.0595 65.4286 1.94068 65.0722 1.84827C64.7289 1.75585 64.3197 1.70305 63.884 1.70305C63.5936 1.70305 63.3031 1.75585 63.0127 1.84827C62.7355 1.94068 62.4846 2.09911 62.2602 2.32354C62.0357 2.54797 61.8641 2.82521 61.7321 3.16846C61.6001 3.51171 61.5341 3.93417 61.5341 4.42264C61.5341 4.81869 61.5737 5.18835 61.6661 5.5316C61.7585 5.87485 61.8905 6.16529 62.0886 6.41613C62.2866 6.66697 62.5374 6.85179 62.8411 6.99701C63.1579 7.14223 63.5276 7.20824 63.9764 7.20824C64.2537 7.20824 64.5045 7.19504 64.7289 7.15543C64.9534 7.12903 65.1514 7.08943 65.323 7.03662C65.4947 6.99701 65.6531 6.9442 65.7851 6.8782C65.9171 6.82539 66.0359 6.77258 66.1415 6.71977L66.6696 8.26439C66.3924 8.42282 66.0095 8.58124 65.5211 8.71325C65.0326 8.83207 64.4649 8.89808 63.818 8.89808Z" fill="#247CC0"/>
<path d="M73.0725 0.184814H75V8.72645H73.0725V5.09592H69.8381V8.72645H67.9106V0.184814H69.8381V3.45888H73.0725V0.184814Z" fill="#247CC0"/>
</svg>
