<svg width="35" height="35" viewBox="0 0 35 35" fill="none" xmlns="http://www.w3.org/2000/svg">
<circle cx="17.5" cy="17.5" r="17.5" fill="#F4F9FC"/>
<path d="M18.455 18C13.6476 18 11 20.2742 11 24.4039C11 24.7264 11.2614 24.9878 11.5839 24.9878H25.326C25.6486 24.9878 25.91 24.7264 25.91 24.4039C25.91 20.2745 23.2624 18 18.455 18ZM12.1891 23.82C12.4188 20.7323 14.5239 19.1679 18.455 19.1679C22.3861 19.1679 24.4912 20.7323 24.7211 23.82H12.1891Z" fill="#030D15"/>
<path d="M17.8735 9C15.6652 9 14 10.6987 14 12.9512C14 15.2696 15.7376 17.1555 17.8735 17.1555C20.0093 17.1555 21.7469 15.2696 21.7469 12.9513C21.7469 10.6987 20.0817 9 17.8735 9ZM17.8735 15.9878C16.3815 15.9878 15.1679 14.6257 15.1679 12.9513C15.1679 11.3385 16.3058 10.1679 17.8735 10.1679C19.4161 10.1679 20.5791 11.3644 20.5791 12.9513C20.5791 14.6257 19.3654 15.9878 17.8735 15.9878Z" fill="#030D15"/>
</svg>
